<svg width="25" height="22" viewBox="0 0 25 22" fill="none" xmlns="http://www.w3.org/2000/svg">
<path fill-rule="evenodd" clip-rule="evenodd" d="M0.183594 2.25C0.183594 1.78587 0.367968 1.34075 0.696157 1.01256C1.02435 0.684375 1.46946 0.5 1.93359 0.5H22.9336C23.3977 0.5 23.8428 0.684375 24.171 1.01256C24.4992 1.34075 24.6836 1.78587 24.6836 2.25C24.6836 2.71413 24.4992 3.15925 24.171 3.48744C23.8428 3.81563 23.3977 4 22.9336 4H1.93359C1.46946 4 1.02435 3.81563 0.696157 3.48744C0.367968 3.15925 0.183594 2.71413 0.183594 2.25ZM0.183594 11C0.183594 10.5359 0.367968 10.0908 0.696157 9.76256C1.02435 9.43437 1.46946 9.25 1.93359 9.25H22.9336C23.3977 9.25 23.8428 9.43437 24.171 9.76256C24.4992 10.0908 24.6836 10.5359 24.6836 11C24.6836 11.4641 24.4992 11.9092 24.171 12.2374C23.8428 12.5656 23.3977 12.75 22.9336 12.75H1.93359C1.46946 12.75 1.02435 12.5656 0.696157 12.2374C0.367968 11.9092 0.183594 11.4641 0.183594 11ZM0.183594 19.75C0.183594 19.2859 0.367968 18.8408 0.696157 18.5126C1.02435 18.1844 1.46946 18 1.93359 18H12.4336C12.8977 18 13.3428 18.1844 13.671 18.5126C13.9992 18.8408 14.1836 19.2859 14.1836 19.75C14.1836 20.2141 13.9992 20.6592 13.671 20.9874C13.3428 21.3156 12.8977 21.5 12.4336 21.5H1.93359C1.46946 21.5 1.02435 21.3156 0.696157 20.9874C0.367968 20.6592 0.183594 20.2141 0.183594 19.75Z" fill="white"/>
</svg>
