<svg width="25" height="24" viewBox="0 0 25 24" fill="none" xmlns="http://www.w3.org/2000/svg">
<path d="M12.4336 0.333328C13.9807 0.333328 15.4645 0.94791 16.5584 2.04187C17.6524 3.13583 18.267 4.61957 18.267 6.16666C18.267 7.71376 17.6524 9.19749 16.5584 10.2915C15.4645 11.3854 13.9807 12 12.4336 12C10.8865 12 9.40281 11.3854 8.30885 10.2915C7.21488 9.19749 6.6003 7.71376 6.6003 6.16666C6.6003 4.61957 7.21488 3.13583 8.30885 2.04187C9.40281 0.94791 10.8865 0.333328 12.4336 0.333328ZM12.4336 14.9167C18.8795 14.9167 24.1003 17.5271 24.1003 20.75V23.6667H0.766968V20.75C0.766968 17.5271 5.9878 14.9167 12.4336 14.9167Z" fill="white"/>
</svg>
