<svg width="41" height="59" viewBox="0 0 41 59" fill="none" xmlns="http://www.w3.org/2000/svg">
<path d="M20.4281 58.25H20.5C31.5946 58.25 40.625 49.2225 40.625 38.125V20.875C40.625 9.83212 31.6349 0.82475 20.5546 0.75H20.3821C9.34212 0.81325 0.375 9.82637 0.375 20.875V38.125C0.375 49.2225 9.37088 58.25 20.4281 58.25ZM6.125 20.875C6.13028 17.0716 7.64057 13.4248 10.3259 10.7314C13.0113 8.03795 16.6535 6.51671 20.4569 6.5C28.4063 6.51725 34.875 12.9659 34.875 20.875V38.125C34.875 46.0514 28.4264 52.5 20.5 52.5H20.4281C12.4098 52.5 6.125 46.1865 6.125 38.125V20.875Z" fill="white"/>
<path d="M17.625 12.25H23.375V29.5H17.625V12.25Z" fill="white"/>
</svg>
