<svg width="41" height="59" fill="none" xmlns="http://www.w3.org/2000/svg"><path d="M20.428 58.25h.072c11.095 0 20.125-9.028 20.125-20.125v-17.25c0-11.043-8.99-20.05-20.07-20.125h-.173C9.342.813.375 9.826.375 20.875v17.25c0 11.097 8.996 20.125 20.053 20.125ZM6.125 20.875A14.395 14.395 0 0 1 20.457 6.5c7.95.017 14.418 6.466 14.418 14.375v17.25c0 7.926-6.449 14.375-14.375 14.375h-.072c-8.018 0-14.303-6.313-14.303-14.375v-17.25Z" fill="#fff"/><path d="M17.625 12.25h5.75V29.5h-5.75V12.25Z" fill="#fff"/></svg>