<svg width="31" height="31" fill="none" xmlns="http://www.w3.org/2000/svg"><path d="M30.526 26.441 24.683 20.6a1.405 1.405 0 0 0-.996-.41h-.955a12.129 12.129 0 0 0 2.578-7.5C25.31 5.954 19.855.5 13.122.5 6.389.5.934 5.955.934 12.688c0 6.733 5.455 12.189 12.188 12.189 2.83 0 5.432-.961 7.5-2.578v.955c0 .375.147.732.41.996l5.843 5.842a1.4 1.4 0 0 0 1.986 0l1.659-1.658c.55-.551.55-1.442.006-1.993ZM13.122 20.19a7.496 7.496 0 0 1-7.5-7.5c0-4.143 3.351-7.501 7.5-7.501 4.143 0 7.5 3.352 7.5 7.5 0 4.143-3.351 7.5-7.5 7.5Z" fill="#fff"/></svg>