<svg width="45" height="45" fill="none" xmlns="http://www.w3.org/2000/svg"><path d="M16.55 12.929c.659-.378 1.476-.44 2.127.035l12.656 7.734a2.12 2.12 0 0 1 1.01 1.802 2.12 2.12 0 0 1-1.01 1.802l-12.656 7.734a2.095 2.095 0 0 1-2.127.035 2.096 2.096 0 0 1-1.081-1.837V14.686c0-.685.413-1.388 1.08-1.757ZM45 22.5C45 34.928 34.928 45 22.5 45S0 34.928 0 22.5 10.072 0 22.5 0 45 10.072 45 22.5ZM22.5 4.219C12.401 4.219 4.219 12.4 4.219 22.5c0 10.099 8.182 18.281 18.281 18.281 10.099 0 18.281-8.182 18.281-18.281 0-10.099-8.182-18.281-18.281-18.281Z" fill="#fff"/></svg>